# xmcd CD database file
#
# Track frame offsets:
#	150
#	15616
#	35599
#	57195
#	78023
#	97745
#	116110
#	132920
#	151061
#	165592
#	184802
#	205480
#	222849
#	245749
#
# Disc length: 3551 seconds
#
# Revision: 0
# Processed by: cddbd v1.5.2PL0 Copyright (c) Steve Scherf et al.
# Submitted via: CDex 1.51
#
DISCID=b50ddd0e
DTITLE=Raul Malo - You're Only Lonely
DYEAR=2006
DGENRE=Country
TTITLE0=I'll Be Your Lullaby
TTITLE1=You're Only Lonely
TTITLE2=Angel Flying Too Close To The Ground
TTITLE3=Feels Like Home
TTITLE4=So Sad
TTITLE5=At Last
TTITLE6=Games That Lovers Play
TTITLE7=For You
TTITLE8=Secret Heart
TTITLE9=Run to Me
TTITLE10=Tomorrow Night
TTITLE11=Remember
TTITLE12=Unbreakable
TTITLE13=Feels Like Home
EXTD=YEAR: 2006
EXTT0=
EXTT1=
EXTT2=
EXTT3=
EXTT4=
EXTT5=
EXTT6=
EXTT7=
EXTT8=
EXTT9=
EXTT10=
EXTT11=
EXTT12=
EXTT13=
PLAYORDER=
